<?xml version="1.0" encoding="utf-8"?>
<!-- Generator: Adobe Illustrator 16.0.0, SVG Export Plug-In . SVG Version: 6.00 Build 0)  -->
<!DOCTYPE svg PUBLIC "-//W3C//DTD SVG 1.1//EN" "http://www.w3.org/Graphics/SVG/1.1/DTD/svg11.dtd">
<svg version="1.1" id="Layer_1" xmlns="http://www.w3.org/2000/svg" xmlns:xlink="http://www.w3.org/1999/xlink" x="0px" y="0px"
	 width="174.825px" height="49.028px" viewBox="193.475 -200.206 174.825 49.028"
	 enable-background="new 193.475 -200.206 174.825 49.028" xml:space="preserve">
<g>
	<g>
		<path fill="none" stroke="#3953A4" stroke-miterlimit="10" d="M221.482-175.78"/>
		<polygon fill="#67092C" points="196.882,-172.339 193.475,-170.092 210.672,-160.054 227.868,-170.092 224.461,-172.339 
			210.672,-164.291 		"/>
		<polygon fill="#981D2D" points="221.482,-175.78 221.482,-186.75 217.826,-184.608 217.826,-177.798 		"/>
		<path fill="#6AC072" d="M199.84-174.256"/>
		<path fill="none" stroke="#3953A4" stroke-miterlimit="10" d="M199.84-186.75"/>
		<path fill="#E21D39" d="M203.495-176.333"/>
		<polyline fill="#E21D39" points="227.868,-170.092 224.461,-172.339 224.461,-188.438 210.672,-196.487 196.882,-188.438 
			193.475,-190.168 210.672,-200.206 227.868,-190.168 227.868,-170.092 		"/>
		<polygon fill="#981D2D" points="196.882,-188.438 196.882,-172.339 193.475,-170.092 193.475,-190.168 		"/>
		<path fill="none" stroke="#E21D39" stroke-miterlimit="10" d="M217.826-178.842"/>
		<path fill="none" stroke="#E21D39" stroke-miterlimit="10" d="M214.987-174.695"/>
		<polygon fill="#981D2D" points="199.84,-174.256 203.495,-176.333 203.495,-182.346 199.84,-184.416 		"/>
		<path fill="#981D2D" d="M203.495-176.333"/>
		<polygon fill="#E21D39" points="199.84,-184.416 216.002,-175.268 219.998,-177.629 205.582,-185.813 210.661,-188.745 
			217.826,-184.608 221.482,-186.75 210.661,-192.997 199.84,-186.75 		"/>
		<polygon fill="#67092C" points="219.998,-177.629 221.482,-176.763 221.482,-174.256 210.661,-168.008 199.84,-174.256 
			203.495,-176.333 210.661,-172.197 		"/>
	</g>
	<g>
		<path fill="#FFFFFF" d="M244.312-174.685c1.24,0.713,3.101,1.333,5.054,1.333c2.45,0,3.814-1.147,3.814-2.853
			c0-1.581-1.054-2.511-3.721-3.473c-3.442-1.24-5.643-3.069-5.643-6.077c0-3.41,2.853-6.015,7.379-6.015
			c2.263,0,3.938,0.496,5.023,1.054l-0.93,3.07c-0.744-0.403-2.202-0.992-4.155-0.992c-2.418,0-3.473,1.302-3.473,2.511
			c0,1.612,1.209,2.356,4,3.442c3.627,1.364,5.395,3.194,5.395,6.201c0,3.349-2.542,6.263-7.938,6.263
			c-2.201,0-4.496-0.62-5.643-1.302L244.312-174.685z"/>
		<path fill="#FFFFFF" d="M264.357-191.428v8.372h8.836v-8.372h3.814v20.898h-3.814v-9.208h-8.836v9.208h-3.814v-20.898H264.357z"/>
		<path fill="#FFFFFF" d="M285.505-176.452l-1.798,5.922h-3.938l6.697-20.898h4.868l6.79,20.898h-4.093l-1.891-5.922H285.505z
			 M291.49-179.336l-1.644-5.147c-0.403-1.271-0.744-2.697-1.054-3.907h-0.062c-0.31,1.209-0.62,2.667-0.992,3.907l-1.612,5.147
			H291.49z"/>
		<path fill="#FFFFFF" d="M300.933-191.149c1.675-0.279,3.814-0.435,6.077-0.435c3.907,0,6.604,0.807,8.526,2.419
			c2.016,1.643,3.256,4.124,3.256,7.689c0,3.721-1.271,6.511-3.256,8.31c-2.077,1.891-5.395,2.853-9.456,2.853
			c-2.232,0-3.907-0.124-5.147-0.279V-191.149z M304.747-173.445c0.526,0.093,1.333,0.093,2.107,0.093
			c4.961,0.031,7.907-2.697,7.907-7.999c0.03-4.62-2.636-7.256-7.411-7.256c-1.209,0-2.077,0.093-2.604,0.217V-173.445z"/>
		<path fill="#FFFFFF" d="M340.896-181.196c0,7.007-4.248,11.007-10.016,11.007c-5.891,0-9.611-4.496-9.611-10.635
			c0-6.418,4.031-10.945,9.922-10.945C337.299-191.769,340.896-187.149,340.896-181.196z M325.3-180.886
			c0,4.248,2.139,7.627,5.798,7.627c3.689,0,5.767-3.411,5.767-7.783c0-3.938-1.953-7.658-5.767-7.658
			C327.315-188.699,325.3-185.196,325.3-180.886z"/>
		<path fill="#FFFFFF" d="M347.279-170.53l-5.116-20.898h4.062l1.984,9.488c0.527,2.542,1.023,5.209,1.365,7.287h0.062
			c0.341-2.202,0.931-4.682,1.52-7.317l2.263-9.457h4l2.078,9.612c0.526,2.48,0.961,4.806,1.271,7.069h0.063
			c0.372-2.294,0.868-4.682,1.426-7.224l2.171-9.457h3.875l-5.611,20.898h-4.093l-2.171-9.829c-0.527-2.388-0.898-4.372-1.146-6.636
			h-0.063c-0.372,2.232-0.775,4.248-1.396,6.636l-2.418,9.829H347.279z"/>
	</g>
	<g>
		<path fill="#BCBEC0" d="M244.268-160.661c0.588-0.098,1.359-0.182,2.339-0.182c1.205,0,2.087,0.28,2.647,0.785
			c0.518,0.448,0.827,1.134,0.827,1.975c0,0.854-0.252,1.527-0.729,2.017c-0.645,0.686-1.695,1.036-2.886,1.036
			c-0.364,0-0.7-0.014-0.98-0.084v3.782h-1.219V-160.661z M245.487-156.109c0.266,0.07,0.603,0.098,1.009,0.098
			c1.471,0,2.367-0.714,2.367-2.017c0-1.247-0.883-1.849-2.228-1.849c-0.532,0-0.938,0.042-1.148,0.098V-156.109z"/>
		<path fill="#BCBEC0" d="M251.586-160.647c0.617-0.126,1.499-0.196,2.339-0.196c1.303,0,2.143,0.238,2.731,0.771
			c0.477,0.42,0.743,1.064,0.743,1.793c0,1.247-0.785,2.073-1.779,2.409v0.042c0.729,0.252,1.163,0.925,1.387,1.905
			c0.308,1.316,0.532,2.227,0.729,2.591h-1.261c-0.154-0.266-0.364-1.079-0.63-2.255c-0.28-1.303-0.784-1.793-1.891-1.835h-1.148
			v4.09h-1.219V-160.647z M252.804-156.347h1.247c1.303,0,2.129-0.714,2.129-1.793c0-1.219-0.883-1.751-2.171-1.765
			c-0.588,0-1.008,0.056-1.205,0.112V-156.347z"/>
		<path fill="#BCBEC0" d="M267.305-156.151c0,3.25-1.975,4.973-4.384,4.973c-2.493,0-4.244-1.933-4.244-4.791
			c0-2.998,1.863-4.958,4.384-4.958C265.638-160.927,267.305-158.952,267.305-156.151z M259.979-155.997
			c0,2.017,1.092,3.824,3.011,3.824c1.933,0,3.026-1.779,3.026-3.922c0-1.877-0.98-3.838-3.012-3.838
			C260.988-159.933,259.979-158.07,259.979-155.997z"/>
		<path fill="#BCBEC0" d="M270.558-160.773h1.219v6.317c0,2.507-1.233,3.278-2.857,3.278c-0.448,0-0.995-0.098-1.303-0.224
			l0.182-0.995c0.252,0.098,0.616,0.182,1.022,0.182c1.092,0,1.737-0.49,1.737-2.339V-160.773z"/>
		<path fill="#BCBEC0" d="M278.822-155.759h-3.67v3.404h4.09v1.022h-5.309v-9.441h5.099v1.022h-3.88v2.983h3.67V-155.759z"/>
		<path fill="#BCBEC0" d="M287.387-151.64c-0.448,0.224-1.345,0.448-2.493,0.448c-2.662,0-4.665-1.681-4.665-4.777
			c0-2.956,2.003-4.958,4.931-4.958c1.176,0,1.919,0.252,2.241,0.42l-0.294,0.994c-0.462-0.224-1.121-0.392-1.905-0.392
			c-2.213,0-3.684,1.415-3.684,3.894c0,2.312,1.331,3.796,3.628,3.796c0.742,0,1.499-0.154,1.989-0.393L287.387-151.64z"/>
		<path fill="#BCBEC0" d="M291.182-159.737h-2.872v-1.037h6.99v1.037h-2.885v8.404h-1.233V-159.737z"/>
		<path fill="#BCBEC0" d="M299.707-160.647c0.742-0.112,1.624-0.196,2.591-0.196c1.751,0,2.998,0.406,3.824,1.177
			c0.841,0.771,1.331,1.863,1.331,3.39c0,1.541-0.477,2.802-1.359,3.67c-0.882,0.883-2.339,1.359-4.174,1.359
			c-0.868,0-1.597-0.042-2.213-0.112V-160.647z M300.926-152.299c0.308,0.056,0.756,0.07,1.232,0.07c2.605,0,4.02-1.457,4.02-4.006
			c0.015-2.227-1.246-3.642-3.823-3.642c-0.631,0-1.107,0.056-1.429,0.126V-152.299z"/>
		<path fill="#BCBEC0" d="M317.284-156.151c0,3.25-1.975,4.973-4.384,4.973c-2.494,0-4.245-1.933-4.245-4.791
			c0-2.998,1.863-4.958,4.385-4.958C315.617-160.927,317.284-158.952,317.284-156.151z M309.958-155.997
			c0,2.017,1.093,3.824,3.012,3.824c1.934,0,3.025-1.779,3.025-3.922c0-1.877-0.98-3.838-3.011-3.838
			C310.967-159.933,309.958-158.07,309.958-155.997z"/>
		<path fill="#BCBEC0" d="M325.644-151.64c-0.448,0.224-1.345,0.448-2.493,0.448c-2.661,0-4.665-1.681-4.665-4.777
			c0-2.956,2.004-4.958,4.931-4.958c1.177,0,1.919,0.252,2.241,0.42l-0.294,0.994c-0.462-0.224-1.12-0.392-1.905-0.392
			c-2.213,0-3.684,1.415-3.684,3.894c0,2.312,1.331,3.796,3.628,3.796c0.742,0,1.499-0.154,1.989-0.393L325.644-151.64z"/>
		<path fill="#BCBEC0" d="M327.162-152.817c0.546,0.336,1.345,0.616,2.186,0.616c1.246,0,1.975-0.658,1.975-1.611
			c0-0.882-0.504-1.387-1.779-1.877c-1.54-0.546-2.493-1.345-2.493-2.675c0-1.471,1.219-2.563,3.054-2.563
			c0.967,0,1.667,0.224,2.087,0.462l-0.336,0.995c-0.308-0.168-0.938-0.448-1.793-0.448c-1.288,0-1.779,0.77-1.779,1.415
			c0,0.882,0.575,1.317,1.878,1.821c1.597,0.617,2.409,1.387,2.409,2.774c0,1.457-1.079,2.717-3.306,2.717
			c-0.911,0-1.905-0.266-2.41-0.603L327.162-152.817z"/>
	</g>
</g>
</svg>
